<svg aria-hidden="true" style="position: absolute; width: 0; height: 0; overflow: hidden;" version="1.1" xmlns="http://www.w3.org/2000/svg" xmlns:xlink="http://www.w3.org/1999/xlink">
<defs>
<symbol id="icon-instagram" viewBox="0 0 32 32">
<path d="M9.403 0.097c-1.703 0.077-2.866 0.348-3.884 0.743-1.052 0.409-1.944 0.956-2.834 1.845s-1.437 1.781-1.846 2.834c-0.396 1.018-0.666 2.181-0.744 3.884-0.078 1.707-0.097 2.251-0.097 6.597s0.019 4.89 0.097 6.597c0.077 1.703 0.348 2.866 0.744 3.883 0.409 1.052 0.956 1.945 1.846 2.834s1.781 1.437 2.834 1.846c1.018 0.396 2.181 0.666 3.884 0.743 1.707 0.078 2.251 0.097 6.597 0.097s4.89-0.019 6.597-0.097c1.703-0.077 2.866-0.348 3.884-0.743 1.051-0.409 1.944-0.956 2.834-1.846s1.436-1.782 1.845-2.834c0.395-1.017 0.666-2.18 0.744-3.883 0.078-1.707 0.096-2.251 0.096-6.597s-0.018-4.89-0.096-6.597c-0.077-1.703-0.348-2.866-0.744-3.884-0.409-1.052-0.956-1.944-1.845-2.834s-1.782-1.437-2.834-1.845c-1.018-0.396-2.181-0.666-3.884-0.743-1.707-0.078-2.251-0.097-6.597-0.097s-4.89 0.019-6.597 0.097zM9.535 29.023c-1.56-0.071-2.407-0.331-2.971-0.55-0.747-0.291-1.28-0.637-1.84-1.197s-0.907-1.093-1.197-1.839c-0.219-0.564-0.479-1.411-0.551-2.971-0.077-1.687-0.093-2.193-0.093-6.465s0.017-4.778 0.093-6.466c0.071-1.56 0.332-2.407 0.551-2.971 0.291-0.747 0.637-1.28 1.197-1.84s1.093-0.907 1.84-1.197c0.563-0.219 1.411-0.48 2.971-0.551 1.687-0.077 2.193-0.093 6.465-0.093s4.778 0.016 6.466 0.093c1.56 0.071 2.407 0.332 2.971 0.551 0.747 0.29 1.28 0.637 1.84 1.197s0.906 1.093 1.197 1.84c0.219 0.564 0.48 1.411 0.551 2.971 0.077 1.687 0.093 2.193 0.093 6.466s-0.016 4.778-0.093 6.465c-0.071 1.56-0.332 2.407-0.551 2.971-0.291 0.747-0.637 1.28-1.197 1.839s-1.093 0.906-1.84 1.197c-0.564 0.219-1.411 0.479-2.971 0.55-1.687 0.077-2.193 0.093-6.466 0.093s-4.778-0.016-6.465-0.093zM22.621 7.459c0 1.060 0.86 1.92 1.92 1.92s1.92-0.86 1.92-1.92c0-1.061-0.859-1.92-1.92-1.92s-1.92 0.859-1.92 1.92zM7.783 16c0 4.538 3.679 8.216 8.217 8.216s8.216-3.678 8.216-8.216-3.678-8.216-8.216-8.216c-4.538 0-8.217 3.678-8.217 8.216zM10.668 16c0-2.946 2.388-5.333 5.333-5.333s5.333 2.388 5.333 5.333c0 2.946-2.388 5.333-5.333 5.333s-5.333-2.388-5.333-5.333z"></path>
</symbol>
<symbol id="icon-youTube" viewBox="0 0 44 32">
<path d="M29.554 14.21l-11.107-5.552c0 0-3.085-1.403-3.085 1.234v12.338c0 0 0.057 1.882 3.085 0.617 2.107-0.881 11.107-5.552 11.107-5.552s2.296-1.471 0-3.084zM43.129 26.548c-1.376 3.913-4.319 4.417-6.788 4.935-3.639 0.763-27.056 0.667-30.854-0.617-2.368-0.801-3.826-1.145-4.936-6.786-0.711-3.609-0.758-14.227 0-17.89 0.734-3.547 2.577-5.212 6.171-5.552 9.651-0.914 25.783-0.785 30.854 0 4.701 0.728 5.683 3.531 6.171 6.169 0.789 4.271 0.882 15.476-0.617 19.741z"></path>
</symbol>
<symbol id="icon-twitter" viewBox="0 0 37 32">
<path d="M36.571 3.788c-1.345 0.642-2.792 1.077-4.309 1.272 1.549-1 2.739-2.583 3.299-4.47-1.45 0.926-3.056 1.598-4.765 1.961-1.368-1.57-3.318-2.551-5.477-2.551-4.143 0-7.503 3.617-7.503 8.078 0 0.633 0.066 1.25 0.194 1.841-6.236-0.337-11.764-3.553-15.465-8.441-0.646 1.193-1.016 2.581-1.016 4.062 0 2.803 1.325 5.275 3.338 6.724-1.23-0.042-2.387-0.405-3.398-1.010-0.001 0.033-0.001 0.067-0.001 0.101 0 3.914 2.586 7.179 6.019 7.922-0.629 0.185-1.292 0.284-1.977 0.284-0.483 0-0.953-0.051-1.412-0.145 0.955 3.209 3.726 5.545 7.009 5.61-2.568 2.167-5.803 3.458-9.318 3.458-0.606 0-1.203-0.038-1.79-0.113 3.32 2.292 7.265 3.63 11.501 3.63 13.801 0 21.348-12.31 21.348-22.985 0-0.35-0.007-0.699-0.022-1.046 1.466-1.139 2.738-2.562 3.744-4.182z"></path>
</symbol>
<symbol id="icon-facebook" viewBox="0 0 16 32">
<path d="M16 5.5h-3.2c-2.203 0-2.133 0.786-2.133 2.224v2.276h5.333l-1.067 6h-4.266v16h-7.467v-16h-3.2v-6h3.2v-2.826c0-4.498 2.395-7.174 8.054-7.174h4.746v5.5z"></path>
</symbol>
</defs>
</svg>
